<?xml version="1.0" encoding="UTF-8"?>
<svg id="Layer_1" data-name="Layer 1" xmlns="http://www.w3.org/2000/svg" viewBox="0 0 311.06 80.17">
<g>
    <path fill="#ffffff" d="M143.08,51.65c-1.65-.88-3.02-2.02-4.1-3.42-1.08-1.4-1.89-2.99-2.44-4.77-.54-1.78-.81-3.58-.81-5.41s.27-3.62.81-5.41c.54-1.78,1.35-3.37,2.44-4.77,1.08-1.4,2.45-2.52,4.1-3.38,1.65-.86,3.58-1.28,5.77-1.28s4.16.43,5.81,1.28c1.65.85,3.04,1.98,4.15,3.38,1.11,1.4,1.94,2.99,2.48,4.77.54,1.78.81,3.58.81,5.41s-.27,3.63-.81,5.41c-.54,1.78-1.37,3.37-2.48,4.77-1.11,1.4-2.49,2.53-4.15,3.4s-3.59,1.3-5.81,1.3-4.12-.43-5.77-1.28ZM143.43,44.86c.63.91,1.39,1.64,2.29,2.18.9.54,1.95.81,3.14.81s2.26-.27,3.18-.81c.93-.54,1.7-1.27,2.33-2.18.63-.91,1.1-1.96,1.41-3.14.31-1.18.47-2.4.47-3.65s-.16-2.47-.47-3.65c-.31-1.18-.78-2.23-1.41-3.14-.63-.91-1.4-1.64-2.33-2.18-.93-.54-1.99-.81-3.18-.81s-2.24.27-3.14.81c-.9.54-1.66,1.27-2.29,2.18-.63.91-1.1,1.96-1.41,3.14-.31,1.18-.47,2.4-.47,3.65s.16,2.47.47,3.65c.31,1.18.78,2.23,1.41,3.14Z"/>
    <path fill="#ffffff" d="M171.59,52.34v-28.51h11.58c1.2,0,2.39.13,3.59.38,1.2.26,2.27.71,3.23,1.35.95.64,1.74,1.5,2.35,2.59.61,1.08.92,2.46.92,4.15,0,1.03-.13,2.01-.38,2.95s-.65,1.8-1.18,2.59c-.53.78-1.21,1.47-2.05,2.07-.84.6-1.85,1.07-3.01,1.41l7.31,11.03h-6.54l-7.05-10.68h-3.12v10.68h-5.64ZM177.23,36.74h4.4c2.08,0,3.59-.33,4.53-.98s1.41-1.62,1.41-2.91c0-1.37-.44-2.39-1.33-3.06s-2.42-1-4.62-1h-4.4v7.95Z"/>
    <path fill="#ffffff" d="M202.49,52.34v-28.51h8.46c1.08,0,2.28.09,3.59.26,1.31.17,2.56.51,3.76,1.03,1.22.57,2.3,1.3,3.23,2.2s1.69,1.91,2.29,3.04c.6,1.13,1.05,2.34,1.35,3.63s.45,2.61.45,3.95-.15,2.66-.45,3.95c-.3,1.3-.76,2.52-1.37,3.68-.61,1.15-1.38,2.19-2.31,3.1-.93.91-2,1.65-3.23,2.22-2.08.97-4.44,1.45-7.09,1.45h-8.68ZM208.26,47.21h2.31c2.08,0,3.8-.36,5.17-1.07,1.37-.71,2.38-1.8,3.04-3.27.65-1.47.98-3.03.98-4.68s-.3-3.16-.9-4.59c-.6-1.44-1.52-2.56-2.78-3.36-.66-.43-1.47-.75-2.44-.96-.97-.21-1.95-.32-2.95-.32h-2.44v18.25Z"/>
    <path fill="#ffffff" d="M235.02,52.34v-28.51h5.77v28.51h-5.77Z"/>
    <path fill="#ffffff" d="M257.97,52.34v-11.45l-9.62-17.05h6.41l6.2,11.33,5.9-11.33h6.33l-9.45,17.05v11.45h-5.77Z"/>
    <path fill="#ffffff" d="M273.4,52.34l11.71-28.51h4.06l11.88,28.51h-6.2l-2.31-5.73h-10.98l-2.35,5.73h-5.81ZM283.31,41.78h7.35l-3.68-9.36-3.67,9.36Z"/>
  </g>
  <circle fill="#e6e7ea" opacity="0.5" cx="10.72" cy="11.13" r="8.41"/>
  <circle fill="#e6e7ea" opacity="0.5" cx="35.47" cy="11.13" r="8.41"/>
  <circle fill="#e6e7ea" opacity="0.5" cx="60.22" cy="11.13" r="8.41"/>
  <circle fill="#e6e7ea" opacity="0.5" cx="84.97" cy="11.13" r="8.41"/>
  <circle fill="#ffffff" cx="109.72" cy="11.13" r="8.41"/>
  <circle fill="#e6e7ea" opacity="0.5" cx="10.72" cy="39.65" r="8.41"/>
  <circle fill="#e6e7ea" opacity="0.5" cx="35.47" cy="39.65" r="8.41"/>
  <circle fill="#e6e7ea" opacity="0.5" cx="60.22" cy="39.65" r="8.41"/>
  <circle fill="#e6e7ea" opacity="0.5" cx="84.97" cy="39.65" r="8.41"/>
  <circle fill="#e6e7ea" opacity="0.5" cx="109.72" cy="39.65" r="8.41"/>
  <circle fill="#e6e7ea" opacity="0.5" cx="10.72" cy="68.18" r="8.41"/>
  <circle fill="#e6e7ea" opacity="0.5" cx="35.47" cy="68.18" r="8.41"/>
  <circle fill="#e6e7ea" opacity="0.5" cx="60.22" cy="68.18" r="8.41"/>
  <circle fill="#e6e7ea" opacity="0.5" cx="84.97" cy="68.18" r="8.41"/>
  <circle fill="#e6e7ea" opacity="0.5" cx="109.72" cy="68.18" r="8.41"/>
</svg>